# File created by Blade
# Date/Time:  Tue Apr 07 20:41:02 2015
# Frame Rate: 120.000 fps
#------------------------------------------------------
:FULLY-SPECIFIED
:DEGREES
1593
root 2.746923 33.489641 -1.867131 13.612814 -2.929228 -13.350028
Spine -8.617763 0.477575 1.183428
Head 2.147583 -3.236224 8.429698
LeftShoulder -20.255798 35.193440 25.416313
LeftArm 55.469270 -56.203807 -57.999038
LeftForeArm 7.742957 0.000000 5.000383
LeftHand 11.013951 0.000000 13.012764
LeftHandThumb1 -26.253704 0.000000 33.147579
RightShoulder -5.876217 9.925011 -26.967132
RightArm 3.072633 42.835693 49.962074
RightForeArm 27.196565 -0.000000 14.613447
RightHand 9.522481 -0.000000 -7.504865
RightHandThumb1 -24.326973 -0.000000 -32.862282
LeftUpLeg -11.264663 -12.243515 15.286511
LeftLeg 6.925517 -0.000000 -0.000000
LeftFoot -9.191066 16.241447 -10.056558
LeftToeBase -10.746714 -0.000000 0.000000
RightUpLeg -17.142499 3.565325 11.000669
RightLeg 13.314281 -0.000000 -0.000000
RightFoot -4.904161 -7.013080 25.682008
RightToeBase 5.754446 -0.000000 -0.000000
1594
root 2.711030 33.470864 -1.795946 13.506187 -2.754930 -12.812350
Spine -8.741114 0.290463 0.880145
Head 2.275881 -3.235824 8.285130
LeftShoulder -20.205830 35.191208 25.455746
LeftArm 55.329414 -56.186323 -57.707869
LeftForeArm 7.600946 -0.000000 4.980737
LeftHand 11.042640 -0.000000 12.897795
LeftHandThumb1 -26.253704 0.000000 33.147579
RightShoulder -5.882140 9.758028 -27.029342
RightArm 3.100347 42.584450 49.958747
RightForeArm 26.497074 0.000000 14.587611
RightHand 9.532300 -0.000000 -7.543700
RightHandThumb1 -24.326973 -0.000000 -32.862282
LeftUpLeg -11.014007 -12.605257 14.829039
LeftLeg 6.643461 -0.000000 -0.000000
LeftFoot -9.090098 16.322607 -10.104624
LeftToeBase -10.837372 -0.000000 0.000000
RightUpLeg -16.758005 3.267959 10.733284
RightLeg 12.953379 -0.000000 -0.000000
RightFoot -4.236082 -7.739818 23.348459
RightToeBase 4.656447 -0.000000 -0.000000
1595
root 2.672428 33.451797 -1.723760 13.392413 -2.542449 -12.300210
Spine -8.854315 0.058172 0.615539
Head 2.408811 -3.224505 8.129764
LeftShoulder -20.191940 35.229189 25.443956
LeftArm 55.275435 -56.190507 -57.473577
LeftForeArm 7.746238 -0.000000 4.953869
LeftHand 11.023255 -0.000000 12.814362
LeftHandThumb1 -26.253704 0.000000 33.147579
RightShoulder -5.888607 9.572583 -27.090057
RightArm 3.167060 42.307516 49.958040
RightForeArm 25.739579 -0.000000 14.532382
RightHand 9.536710 -0.000000 -7.455988
RightHandThumb1 -24.326973 -0.000000 -32.862282
LeftUpLeg -10.795595 -12.852220 14.379472
LeftLeg 6.454341 -0.000000 -0.000000
LeftFoot -9.026404 16.299017 -10.094220
LeftToeBase -10.958425 -0.000000 0.000000
RightUpLeg -16.412360 2.782851 10.541649
RightLeg 12.647924 -0.000000 -0.000000
RightFoot -3.814175 -8.186102 21.409825
RightToeBase 2.779822 -0.000000 -0.000000
1596
root 2.633496 33.431472 -1.653204 13.252196 -2.340868 -11.756647
Spine -8.922314 -0.167511 0.306972
Head 2.523314 -3.195794 7.967825
LeftShoulder -20.160905 35.153862 25.492450
LeftArm 55.087590 -56.122731 -57.150253
LeftForeArm 7.722894 -0.000000 4.936183
LeftHand 10.998927 -0.000000 12.534480
LeftHandThumb1 -26.253704 0.000000 33.147579
RightShoulder -5.888412 9.456322 -27.168800
RightArm 3.118539 42.034206 49.919952
RightForeArm 24.916357 -0.000000 14.553555
RightHand 9.408643 0.000000 -7.406330
RightHandThumb1 -24.326973 -0.000000 -32.862282
LeftUpLeg -10.552597 -13.062353 13.878883
LeftLeg 6.275380 -0.000000 -0.000000
LeftFoot -8.961804 16.274419 -10.037598
LeftToeBase -10.926850 -0.000000 0.000000
RightUpLeg -16.046990 2.230100 10.292099
RightLeg 12.282393 -0.000000 -0.000000
RightFoot -3.885878 -8.388424 20.586732
RightToeBase 2.428059 -0.000000 -0.000000
1597
root 2.594762 33.409264 -1.585215 13.126075 -2.133768 -11.187133
Spine -9.001754 -0.395368 -0.030387
Head 2.644499 -3.211431 7.792167
LeftShoulder -20.131525 35.185424 25.501493
LeftArm 55.135148 -56.159496 -57.057185
LeftForeArm 7.785316 0.000000 4.931333
LeftHand 11.069710 -0.000000 12.707071
LeftHandThumb1 -26.253704 0.000000 33.147579
RightShoulder -5.914547 9.290763 -27.257115
RightArm 3.173302 41.753653 49.939607
RightForeArm 24.062025 -0.000000 14.489487
RightHand 9.418585 -0.000000 -7.381807
RightHandThumb1 -24.326973 -0.000000 -32.862282
LeftUpLeg -10.337056 -13.237062 13.353813
LeftLeg 6.122196 -0.000000 -0.000000
LeftFoot -8.881153 16.203781 -9.952558
LeftToeBase -10.997887 -0.000000 0.000000
RightUpLeg -15.688888 1.640725 9.969604
RightLeg 11.895495 -0.000000 -0.000000
RightFoot -4.242253 -8.532446 20.480910
RightToeBase 2.848473 -0.000000 -0.000000
1598
root 2.555294 33.384468 -1.516090 12.955538 -1.951653 -10.606008
Spine -9.023427 -0.606158 -0.404228
Head 2.750600 -3.276407 7.648007
LeftShoulder -20.072369 35.171293 25.576329
LeftArm 55.148888 -56.212469 -57.009499
LeftForeArm 7.798556 0.000000 4.939120
LeftHand 11.002026 -0.000000 12.433186
LeftHandThumb1 -26.253704 0.000000 33.147579
RightShoulder -5.924124 9.129142 -27.318364
RightArm 3.221267 41.445880 49.911889
RightForeArm 23.254588 -0.000000 14.380701
RightHand 9.424085 -0.000000 -7.213274
RightHandThumb1 -24.326973 -0.000000 -32.862282
LeftUpLeg -10.074744 -13.320924 12.785710
LeftLeg 5.990793 -0.000000 -0.000000
LeftFoot -8.872612 16.067005 -9.956794
LeftToeBase -11.044578 -0.000000 0.000000
RightUpLeg -15.295973 0.999252 9.638112
RightLeg 11.529399 -0.000000 -0.000000
RightFoot -4.627789 -8.676105 20.320562
RightToeBase 3.157932 -0.000000 -0.000000
1599
root 2.516271 33.358391 -1.451833 12.824701 -1.715515 -10.014452
Spine -9.074009 -0.872140 -0.769289
Head 2.859996 -3.288441 7.471608
LeftShoulder -20.040344 35.166019 25.594856
LeftArm 55.073450 -56.213133 -56.775856
LeftForeArm 7.675460 0.000000 4.908239
LeftHand 11.048728 -0.000000 12.395148
LeftHandThumb1 -26.253704 0.000000 33.147579
RightShoulder -5.940301 9.026340 -27.398048
RightArm 3.226661 41.087439 49.843683
RightForeArm 22.427115 -0.000000 14.287514
RightHand 9.256961 -0.000000 -7.151094
RightHandThumb1 -24.326973 -0.000000 -32.862282
LeftUpLeg -9.890050 -13.465217 12.246888
LeftLeg 5.898491 -0.000000 -0.000000
LeftFoot -8.838555 15.883733 -9.935279
LeftToeBase -11.060677 -0.000000 0.000000
RightUpLeg -14.999444 0.211895 9.322982
RightLeg 11.249046 -0.000000 -0.000000
RightFoot -4.982792 -8.632161 20.084676
RightToeBase 3.302381 -0.000000 -0.000000
